<?xml version="1.0" encoding="UTF-8"?>
<!-- Generator: Adobe Illustrator 15.0.2, SVG Export Plug-In . SVG Version: 6.00 Build 0)  -->
<!DOCTYPE svg PUBLIC "-//W3C//DTD SVG 1.1//EN" "http://www.w3.org/Graphics/SVG/1.1/DTD/svg11.dtd">
<svg xmlns="http://www.w3.org/2000/svg" xmlns:xlink="http://www.w3.org/1999/xlink" version="1.1" id="Layer_1" x="0px" y="0px" width="512px" height="485.947px" viewBox="0 0 512 485.947" enable-background="new 0 0 512 485.947" xml:space="preserve">
<g>
	<g id="XMLID_2_">
		<g>
			<path d="M407.702,200.394c5.858-1.452,11.426-5.348,17.17-5.459c8.852-0.224,18.845-0.312,26.379,3.445     c13.081,6.524,14.115,20.751,2.162,29.406c-9.581,6.861-21.122,11.396-32.298,15.687c-24.865,9.602-28.17,16.831-15.596,40.386     c20.839,39.015,50.015,68.056,94.658,78.806c4.621,1.095,12.047,6.196,11.817,8.878c-0.507,6.102-3.5,15.068-8.122,17.196     c-15.014,7.027-30.919,12.987-47.082,16.467c-10.081,2.074-13.865,5.798-15.986,15.291c-4.541,20.021-8.514,22.514-27.927,18.622     c-30.865-6.217-58.001-0.865-84.302,18.122c-53.068,38.393-92.613,38.23-145.57-0.217     c-25.825-18.824-52.572-24.088-82.981-17.838c-20.393,4.169-23.893,1.703-28.765-19.041c-2.013-8.486-5.183-12.858-15.067-14.729     c-15.349-2.893-30.667-7.933-44.809-14.568c-5.716-2.628-10.247-11.703-11.368-18.398c-0.449-2.75,9.105-9.041,14.953-10.67     c48.059-13.135,77.326-46.014,97.012-89.596c4.648-10.312,0.727-17.615-7.811-22.406c-7.619-4.196-16.247-6.574-24.369-9.966     c-5.128-2.159-10.365-4.312-15.071-7.224c-9.574-5.909-17.616-13.25-12.074-25.96c4.514-10.449,19.382-15.99,31.088-12.24     c6.636,2.105,13.133,4.845,19.886,6.331c8.849,1.902,13.838-0.614,13.5-11.459c-0.783-24.615-2.188-49.431-0.195-73.938     c4.199-51.781,34.477-85.955,81.079-104.13c67.359-26.159,147.793-6.413,184.115,58.758     c12.743,22.852,14.676,47.581,15.736,72.815c-1.007,15.824-1.817,31.618-3.074,47.362     C394.006,200.394,399.385,202.462,407.702,200.394z" fill="#000000"/>
		</g>
	</g>
</g>
</svg>
